<svg width="50" height="50" viewBox="0 0 50 50" fill="none" xmlns="http://www.w3.org/2000/svg">
<g clip-path="url(#clip0_1237_34)">
<path d="M24.8195 39.1549C27.0308 39.1549 28.8235 37.3449 28.8235 35.1121C28.8235 32.8794 27.0308 31.0694 24.8195 31.0694C22.6081 31.0694 20.8154 32.8794 20.8154 35.1121C20.8154 37.3449 22.6081 39.1549 24.8195 39.1549Z" fill="#FF6F00"/>
<path d="M2.79239 27.0864C4.33458 27.0864 5.58477 25.8241 5.58477 24.267C5.58477 22.7099 4.33458 21.4477 2.79239 21.4477C1.25019 21.4477 0 22.7099 0 24.267C0 25.8241 1.25019 27.0864 2.79239 27.0864Z" fill="#FF6F00"/>
<path d="M14.9877 20.2243C16.5299 20.2243 17.7801 18.962 17.7801 17.4049C17.7801 15.8478 16.5299 14.5855 14.9877 14.5855C13.4455 14.5855 12.1953 15.8478 12.1953 17.4049C12.1953 18.962 13.4455 20.2243 14.9877 20.2243Z" fill="#FF6F00"/>
<path d="M24.3945 14.5855C25.7021 14.5855 26.7621 13.5153 26.7621 12.1951C26.7621 10.8748 25.7021 9.80456 24.3945 9.80456C23.0869 9.80456 22.0269 10.8748 22.0269 12.1951C22.0269 13.5153 23.0869 14.5855 24.3945 14.5855Z" fill="#FF6F00"/>
<path d="M13.7135 6.1907C14.7192 6.1907 15.5345 5.36754 15.5345 4.35213C15.5345 3.33671 14.7192 2.51356 13.7135 2.51356C12.7079 2.51356 11.8926 3.33671 11.8926 4.35213C11.8926 5.36754 12.7079 6.1907 13.7135 6.1907Z" fill="#FF6F00"/>
<path d="M24.1506 3.06546C24.989 3.06546 25.6687 2.37923 25.6687 1.53273C25.6687 0.686226 24.989 0 24.1506 0C23.3122 0 22.6326 0.686226 22.6326 1.53273C22.6326 2.37923 23.3122 3.06546 24.1506 3.06546Z" fill="#FF6F00"/>
<path d="M5.15643 14.6453C6.46402 14.6453 7.52404 13.575 7.52404 12.2548C7.52404 10.9346 6.46402 9.8643 5.15643 9.8643C3.84883 9.8643 2.78882 10.9346 2.78882 12.2548C2.78882 13.575 3.84883 14.6453 5.15643 14.6453Z" fill="#FF6F00"/>
<path d="M5.58486 38.1741C7.79623 38.1741 9.5889 36.3641 9.5889 34.1313C9.5889 31.8986 7.79623 30.0886 5.58486 30.0886C3.37348 30.0886 1.58081 31.8986 1.58081 34.1313C1.58081 36.3641 3.37348 38.1741 5.58486 38.1741Z" fill="#FF6F00"/>
<path d="M43.3266 38.1741C45.5379 38.1741 47.3306 36.3641 47.3306 34.1313C47.3306 31.8986 45.5379 30.0886 43.3266 30.0886C41.1152 30.0886 39.3225 31.8986 39.3225 34.1313C39.3225 36.3641 41.1152 38.1741 43.3266 38.1741Z" fill="#FF6F00"/>
<path d="M13.9574 46.9345C16.1688 46.9345 17.9615 45.1246 17.9615 42.8918C17.9615 40.6591 16.1688 38.8491 13.9574 38.8491C11.746 38.8491 9.95337 40.6591 9.95337 42.8918C9.95337 45.1246 11.746 46.9345 13.9574 46.9345Z" fill="#FF6F00"/>
<path d="M35.3786 46.9345C37.5899 46.9345 39.3826 45.1246 39.3826 42.8918C39.3826 40.6591 37.5899 38.8491 35.3786 38.8491C33.1672 38.8491 31.3745 40.6591 31.3745 42.8918C31.3745 45.1246 33.1672 46.9345 35.3786 46.9345Z" fill="#FF6F00"/>
<path d="M34.0416 33.0872C36.253 33.0872 38.0457 31.2772 38.0457 29.0445C38.0457 26.8118 36.253 25.0018 34.0416 25.0018C31.8303 25.0018 30.0376 26.8118 30.0376 29.0445C30.0376 31.2772 31.8303 33.0872 34.0416 33.0872Z" fill="#FF6F00"/>
<path d="M34.0416 21.4477C36.253 21.4477 38.0457 19.6377 38.0457 17.4049C38.0457 15.1722 36.253 13.3622 34.0416 13.3622C31.8303 13.3622 30.0376 15.1722 30.0376 17.4049C30.0376 19.6377 31.8303 21.4477 34.0416 21.4477Z" fill="#FF6F00"/>
<path d="M45.9967 27.0829C48.2081 27.0829 50.0008 25.2729 50.0008 23.0401C50.0008 20.8074 48.2081 18.9974 45.9967 18.9974C43.7853 18.9974 41.9927 20.8074 41.9927 23.0401C41.9927 25.2729 43.7853 27.0829 45.9967 27.0829Z" fill="#FF6F00"/>
<path d="M43.3266 16.5436C45.5379 16.5436 47.3306 14.7336 47.3306 12.5009C47.3306 10.2681 45.5379 8.45813 43.3266 8.45813C41.1152 8.45813 39.3225 10.2681 39.3225 12.5009C39.3225 14.7336 41.1152 16.5436 43.3266 16.5436Z" fill="#FF6F00"/>
<path d="M35.3786 8.39487C37.5899 8.39487 39.3826 6.58487 39.3826 4.35212C39.3826 2.11937 37.5899 0.309372 35.3786 0.309372C33.1672 0.309372 31.3745 2.11937 31.3745 4.35212C31.3745 6.58487 33.1672 8.39487 35.3786 8.39487Z" fill="#FF6F00"/>
<path d="M14.9879 33.0872C17.1993 33.0872 18.992 31.2772 18.992 29.0445C18.992 26.8118 17.1993 25.0018 14.9879 25.0018C12.7766 25.0018 10.9839 26.8118 10.9839 29.0445C10.9839 31.2772 12.7766 33.0872 14.9879 33.0872Z" fill="#FF6F00"/>
<path d="M24.8195 50C27.0308 50 28.8235 48.19 28.8235 45.9573C28.8235 43.7245 27.0308 41.9145 24.8195 41.9145C22.6081 41.9145 20.8154 43.7245 20.8154 45.9573C20.8154 48.19 22.6081 50 24.8195 50Z" fill="#FF6F00"/>
<path d="M24.8195 28.3098C27.0308 28.3098 28.8235 26.4998 28.8235 24.267C28.8235 22.0343 27.0308 20.2243 24.8195 20.2243C22.6081 20.2243 20.8154 22.0343 20.8154 24.267C20.8154 26.4998 22.6081 28.3098 24.8195 28.3098Z" fill="#FF6F00"/>
</g>
<defs>
<clipPath id="clip0_1237_34">
<rect width="50" height="50" fill="white"/>
</clipPath>
</defs>
</svg>
